<?xml version="1.0" encoding="utf-8"?>
<!-- Generator: Adobe Illustrator 21.1.0, SVG Export Plug-In . SVG Version: 6.00 Build 0)  -->
<svg version="1.1" id="Layer_1" xmlns="http://www.w3.org/2000/svg" xmlns:xlink="http://www.w3.org/1999/xlink" x="0px" y="0px"
	 viewBox="0 0 640 640" style="enable-background:new 0 0 640 640;" xml:space="preserve">
<style type="text/css">
	.st0{fill:#FFFFFF;}
</style>
<g>
	<path class="st0" d="M-0.1,591.9c0-72.3,0-144.7,0-217c0.8,1,1.7,1.9,2.2,3.1c5.9,12.3,13.2,23.5,23.2,32.8
		c8.4,7.7,12,7.3,18.3-2.4c1.3-1.9,2.7-4.1,2.9-6.3c0.4-4.7,4-9.5-0.4-14.2c-21-22.3-30.9-50-35.2-79.5c-4.1-27.8-6.2-55.9-9.2-83.9
		c-0.2-2.3-1.2-4.4-1.9-6.6c0-8.7,0-17.3,0-26c0.7-1.1,1.6-2.1,2.1-3.2c7.9-18.8,17.7-36.5,29.8-52.9
		c27.2-36.5,62.2-63.6,101.8-85.1c30.2-16.4,62-28.8,94.6-39.6c15-5,30-9.9,46.2-9.5c1.8,0,3.7-1.1,5.6-1.7c47.3,0,94.7,0,142,0
		c5.7,2.1,11.5,4.1,17.1,6.3c18,7.1,34.7,16.4,47.6,31c19.3,22,34.5,46.8,47.7,72.8c15.9,31.3,27.3,64.2,34.7,98.4
		c6,27.8,8.3,56,7,84.4c-0.8,18.1-3.1,36.1-8.2,53.7c-2,6.8-3.6,13.8-5.1,20.7c-1.2,5.3-1,11.1-3,16.1c-4.5,11.2-10,22.1-15,33.1
		c-7.6,16.4-7.8,29.2,4.2,39.6c3,2.6,4.6,2.7,7.1-0.4c9.4-11.4,17-23.9,21.9-37.8c8.3-23.7,17-47.3,23-71.6
		c4.8-19.4,7.3-39.7,8.5-59.7c2-33.6-2.4-66.8-10.6-99.4c-9.9-39.3-25.9-76-46.3-111c-17.2-29.6-38.5-54.9-67.8-73.2
		c-1.1-0.6-1.8-2-2.8-3c52.6,0,105.2,0,158,0c0,148.3,0,296.7,0,445c-0.9,1-1.9,1.8-2.6,2.9c-14.1,23.1-28.2,46.3-42.3,69.4
		c-3.8,6.3-7.7,12.6-11.7,19c-1.4-1.1-2.2-1.5-2.7-2.1c-14.5-14-29-28-43.3-42.1c-17-16.8-32-35.1-43.8-56c-4-7-5.5-13.1,0.2-19.7
		c1.9-2.2,3.2-5.1,4.7-7.6c13.1-22.2,27.3-43.9,33.5-69.3c1.9-7.6,4-16.1,2.5-23.5c-5.2-26.4-11.3-52.7-18.1-78.7
		c-7.1-26.9-18.3-52-34.6-74.7c-15.4-21.3-34.3-38.9-59.2-48.1c-19.4-7.2-39.5-12.8-59.6-17.6c-14.7-3.5-30-5.1-45.1-1.8
		c-23.4,5.1-46.8,10.1-70,15.7c-23.1,5.5-45,14.1-65.4,26.3c-22.9,13.7-41.9,31.5-54.1,55.3c-14.4,27.3-23.4,56.6-27.8,87
		c-4.9,33.5-4.6,67,3.2,100.2c6.9,29.3,18.6,56.1,38.2,79.1c12.6,14.8,26.3,28.1,44,37c8.5,4.3,15.9,10.7,23.5,16.6
		c1.3,1,2,4.8,1.2,6.4c-18.1,36.9-36.4,73.6-54.5,110.4c-1.8,3.7-3.8,4-7.5,3.1c-15.7-3.9-29.1-12.1-41.6-21.9
		c-15.1-11.8-29.9-23.8-44.8-35.8c-1.1-0.9-2.2-2.2-2.4-3.5c-1.5-7.5-2.7-15.1-3.9-22.6c-2.6-15.1-5.2-30.2-7.6-45.3
		c-0.6-3.5-2.3-4.4-5.5-3.9c-5.3,0.7-10.6,1.6-15.9,1.8c-4.3,0.2-5.3,2-5,6c1.5,23.6,2.7,47.2,4.1,70.8c0.2,3.4-0.9,5.1-4.1,6.2
		C14.5,586.4,7.2,589.2-0.1,591.9z"/>
	<path class="st0" d="M470.9,639.9c-3.4-9-6.7-18-10.2-27c-10.6-26.9-21.2-53.8-31.8-80.7c-6.3-15.9-12.7-31.8-18.7-47.8
		c-0.8-2.1-0.5-5.3,0.5-7.4c2.9-6.2,6.8-11.8,13.6-14.5c12.1-4.9,27.2,0.4,33.2,13.6c5.7,12.6,15.3,21.6,24.5,31.2
		c30.1,31.4,63.9,58.9,97.2,86.8c2.2,1.8,4.3,3.7,7,6c3.1-3.9,6.5-7.3,9-11.3c14.3-22.8,28.3-45.8,42.5-68.7c0.7-1.1,1.6-2,2.4-3
		c0,41,0,82,0,123C583.7,639.9,527.3,639.9,470.9,639.9z"/>
	<path class="st0" d="M193.9,639.9c3.8-8.7,7.3-17.4,11.3-25.9c9.8-20.8,19.3-41.6,29.7-62.1c6.2-12.3,13.8-23.9,20.9-35.6
		c0.9-1.5,2.9-2.8,4.6-3.3c7.7-2.2,15.4-4.3,23.1-6c8-1.7,11.2,0,13.9,7.8c10.4,30,20.7,60,31,90c4,11.6,7.6,23.4,11.3,35.1
		C291.2,639.9,242.6,639.9,193.9,639.9z"/>
	<path class="st0" d="M170.9-0.1c-5.4,2.7-10.7,5.7-16.2,8.2C112.8,27,73.8,50.8,36.2,77.2C23.9,85.8,11.8,94.4,2,106
		c-0.4,0.5-1.4,0.6-2.1,0.9c0-35.6,0-71.2,0-107C56.9-0.1,113.9-0.1,170.9-0.1z"/>
	<path class="st0" d="M391.9,639.9c-8-20.1-16-40.1-23.9-60.2c-9.5-24.2-17.6-48.7-21.6-74.5c-0.6-3.8-0.3-5.7,4.1-6.5
		c5.9-1,11.6-3,17.3-4.7c2.6-0.7,4.2,0,5.6,2.6c13.1,25.7,23.4,52.5,31.9,80c6.1,19.5,12.1,39,18.2,58.6c0.5,1.6,0.9,3.2,1.4,4.8
		C413.9,639.9,402.9,639.9,391.9,639.9z"/>
	<path class="st0" d="M-0.1,624.9c9.5-2.3,19-4.6,28.5-7c6.6-1.7,13.1-3.7,19.8-5.3c1.3-0.3,3.5,0.2,4.3,1.2
		c9.4,10.7,20.7,18.7,33.6,24.5c0.4,0.2,0.6,1.1,0.9,1.6c-29,0-58,0-87,0C-0.1,634.9-0.1,629.9-0.1,624.9z"/>
	<path class="st0" d="M264.7,483.1c-16.1,0.6-31.8-1.4-46.9-7.4c-17.2-6.8-30.3-18.6-40.2-33.8c-13.5-20.7-27.4-41.3-37.8-63.9
		c-12.1-26.2-20.2-53.4-16.1-82.5c2-13.6,6.5-27.1,11-40.2c14.5-42.1,41.7-74.2,78.5-99c12.1-8.1,25.6-10,38.8-13.2
		c16-3.9,32.1-7.3,48.2-10.5c21.3-4.3,42.9-6.5,64.5-4.4c28.5,2.7,53.2,14,73.3,34.7c6.3,6.6,13.6,12.2,19.7,19
		c15.1,16.9,23.7,37.2,30,58.6c7.2,24.2,11,49,13.2,74.1c3.1,36.5-11,66.1-37.8,90.4c-18.4,16.7-39.6,29.1-61.2,41
		c-12.2,6.7-24.6,13.2-36.6,20.4c-6.3,3.8-13,5-19.8,6.1c-23.8,3.7-47.7,7.2-71.5,10.6C271.1,483.5,267.9,483.1,264.7,483.1z
		 M387.7,357.6c-0.1-0.3-0.2-0.7-0.2-1c-12.1,2.2-24.3,3.9-36.2,6.8c-23.9,5.8-47.6,12.2-71.4,18.5c-6,1.6-9.8,5.4-11.7,11.7
		c-2.5,7.9-0.5,15.2,1.4,22.6c1,3.8,1.6,8.1,6.3,10.1c16.8,7,34.3,7.5,51.5,3.7c16.5-3.6,32.6-9.2,48.7-14.4c7.2-2.3,14.7-4.9,21-9
		c13.2-8.7,18.4-29,11.8-43.4c-1-2.1-4-4.1-6.4-4.6C397.8,357.7,392.7,357.9,387.7,357.6z M396.1,296.7c10.2-11.4,13.1-11.6,25.6-16
		c7.8-2.8,15.9-4.8,23.7-7.8c17.6-6.8,17.6-17.9,9.2-31.5c-0.6-0.9-2.9-1.6-3.9-1.2c-12.3,4.5-24.5,9.2-36.8,13.9
		c-11.7,4.5-23,9.7-32.1,18.7c-1.1,1.1-2.1,3.7-1.5,4.8C384,285,388.1,292.3,396.1,296.7z M188.8,319.5c2.6,5.4,5.2,10.9,7.8,16.3
		c1.5,3.1,3.4,3.6,6.8,2.4c16.6-5.7,33.4-11.1,50.2-16.5c7.3-2.3,8.9-5.3,4.6-11.8c-1.8-2.8-4.7-5.7-7.7-6.5
		c-5.5-1.5-11.6-2.6-17-1.7c-12.4,2-24.6,5.3-36.9,8.1C191.6,311,189.9,314.4,188.8,319.5z"/>
	<path class="st0" d="M299.3,411.4c-0.8-0.6-2.2-1.4-3.3-2.5c-4.3-4.8-1.6-14.8,5.7-16.3c9.2-1.9,18.4-4.5,27.7-5.9
		c18.5-2.8,37.3-4.4,55.1-11c1.1-0.4,3.7,0.5,3.8,1.1c0.4,3,4.5,6.6-0.5,9.1c-8.6,4.3-17,9.1-25.9,12.5
		c-19.6,7.3-40.3,9.6-60.8,12.8C300.8,411.2,300.4,411.3,299.3,411.4z"/>
</g>
</svg>
