<?xml version="1.0" encoding="utf-8"?>
<!-- Generator: Adobe Illustrator 21.1.0, SVG Export Plug-In . SVG Version: 6.00 Build 0)  -->
<svg version="1.1" id="Layer_1" xmlns="http://www.w3.org/2000/svg" xmlns:xlink="http://www.w3.org/1999/xlink" x="0px" y="0px"
	 viewBox="0 0 372 779" style="enable-background:new 0 0 372 779;" xml:space="preserve">
<style type="text/css">
	.st0{fill:#FFFFFF;}
	.st1{fill:#D0D2D3;}
	.st2{clip-path:url(#SVGID_2_);}
	.st3{fill:url(#Rectangle_1_1_);}
	.st4{fill:none;}
	.st5{fill:#301A52;}
	.st6{enable-background:new    ;}
	.st7{font-family:'Montserrat-Regular';}
	.st8{font-size:11.9467px;}
	.st9{fill:none;stroke:#FFFFFF;}
	.st10{fill:url(#Rectangle_2_1_);}
	.st11{fill:#C1A4DB;}
</style>
<g>
	<g id="iPhone_5_18_">
		<path class="st0" d="M347,673.9c0,1.2-0.9,2.1-2.1,2.1H29.1c-1.2,0-2.1-1-2.1-2.1V108.2c0-1.2,0.9-2.1,2.1-2.1h315.8
			c1.2,0,2.1,1,2.1,2.1V673.9z M4,59.7v663.6C4,754.1,29,779,59.8,779h256.5c30.8,0,55.8-24.9,55.8-55.7V59.7
			C372,29,347.1,4,316.3,4H59.8C29,4,4,29,4,59.7z"/>
		<path class="st1" d="M256,0c-2.2,0-4,1.8-4,4h59c0-2.2-1.8-4-4-4H256z M4,246c-2.2,0-4,1.8-4,4v18c0,2.2,1.8,4,4,4V246z M4,181
			c-2.2,0-4,1.8-4,4v18c0,2.2,1.8,4,4,4v-19.5V181z M4,107c-2.2,0-4,1.8-4,4v27c0,2.2,1.8,4,4,4V107z M160,724c0-15.5,12.5-28,28-28
			s28,12.5,28,28s-12.5,28-28,28S160,739.5,160,724z M222,724c0-18.8-15.2-34-34-34s-34,15.2-34,34s15.2,34,34,34S222,742.8,222,724
			z M188.5,43c3.6,0,6.5-2.9,6.5-6.5s-2.9-6.5-6.5-6.5s-6.5,2.9-6.5,6.5S184.9,43,188.5,43z M136.5,70c2.5,0,4.5-2,4.5-4.5
			s-2-4.5-4.5-4.5s-4.5,2-4.5,4.5S134,70,136.5,70z M162,61c-2.2,0-4,1.8-4,4c0,2.2,1.8,4,4,4h52c2.2,0,4-1.8,4-4c0-2.2-1.8-4-4-4
			H162z M345.9,675H28.1c-0.6,0-1.1-0.5-1.1-1.1V108.1c0-0.6,0.5-1.1,1.1-1.1h317.8c0.6,0,1.1,0.5,1.1,1.1v565.8
			C347,674.5,346.5,675,345.9,675z M345.9,676H28.1c-1.2,0-2.1-1-2.1-2.1V108.1c0-1.2,1-2.1,2.1-2.1h317.7c1.2,0,2.1,1,2.1,2.1
			v565.8C348,675,347,676,345.9,676z M59.8,5h256.5C346.5,5,371,29.5,371,59.7v663.6c0,30.2-24.5,54.7-54.8,54.7H59.8
			C29.5,778,5,753.5,5,723.3V59.7C5,29.5,29.5,5,59.8,5z M4,723.3C4,754.1,29,779,59.8,779h256.5c30.8,0,55.8-24.9,55.8-55.7V59.7
			C372,28.9,347,4,316.2,4H59.8C29,4,4,28.9,4,59.7V723.3z"/>
	</g>
	<g id="Screen_6_">
		<g>
			<defs>
				<rect id="SVGID_1_" x="27" y="105.9" width="320" height="569.2"/>
			</defs>
			<clipPath id="SVGID_2_">
				<use xlink:href="#SVGID_1_"  style="overflow:visible;"/>
			</clipPath>
			<g id="Sign_In_1_" class="st2">
				<rect x="27" y="105.9" class="st0" width="320" height="569.2"/>
				<g id="Group_506" transform="translate(0 1514)">
					
						<linearGradient id="Rectangle_1_1_" gradientUnits="userSpaceOnUse" x1="-306.8476" y1="268.6481" x2="-305.9943" y2="269.5015" gradientTransform="matrix(375 0 0 667 115094.8594 -180596.4063)">
						<stop  offset="0" style="stop-color:#DC2430"/>
						<stop  offset="1" style="stop-color:#5E2A8D"/>
					</linearGradient>
					<rect id="Rectangle_1" x="27" y="-1408.1" class="st3" width="320" height="569.2"/>
					<rect id="_65f337b0f3d5a551f7cc4fefdee41730" x="27" y="-1408.1" class="st4" width="320" height="568.7"/>
					<path id="Path_9" class="st5" d="M70.4-1064.9c0,0.9-0.3,1.9-0.9,2.6c-0.5,0.7-1.3,1.1-2.1,1.1H55.7c-0.8,0-1.6-0.4-2.1-1.1
						c-0.6-0.8-0.9-1.7-0.9-2.6c0-0.7,0.1-1.5,0.1-2.2c0.1-0.7,0.2-1.4,0.4-2.1c0.2-0.6,0.5-1.3,0.8-1.8s0.7-0.9,1.3-1.2
						c0.6-0.3,1.2-0.5,1.8-0.5c1.1,1.2,2.7,1.8,4.3,1.8s3.2-0.6,4.3-1.8c0.7,0,1.3,0.1,1.8,0.5c0.5,0.3,0.9,0.7,1.3,1.2
						c0.3,0.6,0.6,1.2,0.8,1.8c0.2,0.7,0.4,1.4,0.4,2.1C70.3-1066.4,70.4-1065.6,70.4-1064.9z M66.9-1077.2c0,1.4-0.5,2.8-1.6,3.8
						c-1,1-2.3,1.6-3.8,1.6c-1.4,0-2.8-0.5-3.8-1.6c-1-1-1.6-2.3-1.6-3.8c0-1.4,0.5-2.8,1.6-3.8c1-1,2.3-1.6,3.8-1.6
						c1.4,0,2.8,0.5,3.8,1.6C66.4-1080,66.9-1078.6,66.9-1077.2z"/>
					<path id="lock" class="st5" d="M58.2-1021.8H66v-2.9c0-2.1-1.7-3.9-3.9-3.9s-3.9,1.7-3.9,3.9
						C58.2-1024.7,58.2-1021.8,58.2-1021.8z M70.8-1020.3v8.7c0,0.8-0.6,1.5-1.5,1.5l0,0H54.8c-0.8,0-1.5-0.6-1.5-1.5l0,0v-8.7
						c0-0.8,0.6-1.5,1.5-1.5l0,0h0.5v-2.9c0-3.7,3.1-6.8,6.9-6.7c3.7,0,6.7,3,6.7,6.7v2.9h0.5C70.1-1021.8,70.8-1021.1,70.8-1020.3
						L70.8-1020.3L70.8-1020.3z"/>
					<g class="st6">
						<path class="st0" d="M90.8-1068.6c0.5,0.5,1.2,0.7,2,0.7c0.8,0,1.5-0.2,2-0.7s0.7-1.2,0.7-2.1v-5.7h1.3v5.7
							c0,1.2-0.4,2.2-1.1,2.9s-1.7,1.1-3,1.1c-1.3,0-2.3-0.4-3-1.1c-0.7-0.7-1.1-1.7-1.1-2.9v-5.7H90v5.7
							C90-1069.8,90.3-1069.1,90.8-1068.6z"/>
						<path class="st0" d="M102.2-1072.8c-0.4-0.1-0.7-0.2-1-0.2c-0.4,0-0.7,0.1-0.9,0.2c-0.2,0.1-0.3,0.4-0.3,0.6
							c0,0.3,0.1,0.5,0.4,0.7c0.3,0.1,0.7,0.3,1.2,0.5c0.5,0.1,0.9,0.3,1.2,0.4c0.3,0.1,0.6,0.4,0.8,0.6c0.2,0.3,0.3,0.7,0.3,1.1
							c0,0.7-0.3,1.2-0.8,1.6c-0.5,0.4-1.2,0.5-1.9,0.5c-0.5,0-1.1-0.1-1.6-0.3c-0.5-0.2-0.9-0.4-1.3-0.7l0.5-0.9
							c0.3,0.3,0.7,0.5,1.1,0.7c0.4,0.2,0.9,0.2,1.3,0.2c0.4,0,0.8-0.1,1-0.2c0.3-0.2,0.4-0.4,0.4-0.7c0-0.3-0.1-0.6-0.4-0.7
							c-0.3-0.2-0.7-0.3-1.2-0.5c-0.5-0.1-0.9-0.3-1.2-0.4c-0.3-0.1-0.6-0.3-0.8-0.6c-0.2-0.3-0.3-0.6-0.3-1.1
							c0-0.7,0.2-1.2,0.7-1.5c0.5-0.3,1.1-0.5,1.8-0.5c0.4,0,0.9,0.1,1.3,0.2s0.8,0.3,1.1,0.5l-0.5,1
							C102.9-1072.6,102.5-1072.7,102.2-1072.8z"/>
						<path class="st0" d="M110.9-1073c0.6,0.7,0.9,1.6,0.9,2.8c0,0.2,0,0.3,0,0.4h-5.7c0.1,0.6,0.4,1.2,0.8,1.5
							c0.4,0.4,1,0.6,1.6,0.6c0.4,0,0.8-0.1,1.2-0.2c0.4-0.2,0.7-0.4,1-0.7l0.7,0.7c-0.4,0.4-0.8,0.7-1.3,0.9
							c-0.5,0.2-1.1,0.3-1.7,0.3c-0.7,0-1.3-0.2-1.9-0.5c-0.6-0.3-1-0.7-1.3-1.3c-0.3-0.6-0.5-1.2-0.5-1.9s0.2-1.3,0.5-1.9
							s0.7-1,1.3-1.3c0.5-0.3,1.2-0.5,1.9-0.5C109.5-1074,110.4-1073.7,110.9-1073z M110.6-1070.8c0-0.7-0.3-1.2-0.7-1.5
							s-0.9-0.6-1.6-0.6c-0.6,0-1.2,0.2-1.6,0.6c-0.4,0.4-0.7,0.9-0.8,1.5H110.6z"/>
						<path class="st0" d="M115.8-1073.6c0.4-0.3,1-0.4,1.6-0.4v1.2c-0.7,0-1.3,0.2-1.8,0.6c-0.5,0.4-0.7,1-0.8,1.7v3.8h-1.3v-7.2
							h1.3v1.6C115-1072.9,115.4-1073.3,115.8-1073.6z"/>
						<path class="st0" d="M124.7-1073.3c0.5,0.5,0.7,1.2,0.7,2.1v4.5h-1.3v-4.1c0-0.6-0.2-1.1-0.5-1.4c-0.3-0.3-0.8-0.5-1.4-0.5
							c-0.6,0-1.2,0.2-1.6,0.6c-0.4,0.4-0.6,0.9-0.7,1.6v3.9h-1.3v-7.2h1.3v1.5c0.5-1,1.4-1.6,2.7-1.6
							C123.6-1074,124.3-1073.8,124.7-1073.3z"/>
						<path class="st0" d="M132.1-1066.8v-1c-0.5,0.7-1.4,1.1-2.5,1.1c-0.5,0-0.9-0.1-1.3-0.3c-0.4-0.2-0.7-0.5-0.9-0.8
							c-0.2-0.3-0.3-0.7-0.3-1.1c0-0.6,0.2-1.2,0.7-1.5c0.5-0.4,1.1-0.6,2-0.6h2.3v-0.3c0-0.5-0.2-0.9-0.5-1.2
							c-0.3-0.3-0.8-0.4-1.4-0.4c-0.7,0-1.5,0.3-2.2,0.8l-0.5-0.9c0.5-0.3,1-0.6,1.4-0.7s1-0.2,1.6-0.2c0.9,0,1.6,0.2,2.1,0.7
							s0.7,1.1,0.8,1.9l0,4.8H132.1z M131.4-1068.2c0.4-0.3,0.7-0.7,0.7-1.1v-0.7H130c-0.6,0-1,0.1-1.3,0.3
							c-0.3,0.2-0.4,0.4-0.4,0.8s0.1,0.7,0.4,0.9c0.3,0.2,0.7,0.3,1.1,0.3C130.5-1067.8,131-1067.9,131.4-1068.2z"/>
						<path class="st0" d="M146.9-1073.3c0.5,0.5,0.7,1.2,0.7,2v4.5h-1.3v-4.1c0-0.6-0.2-1.1-0.5-1.4c-0.3-0.3-0.8-0.5-1.4-0.5
							c-0.7,0-1.2,0.3-1.6,0.7c-0.4,0.5-0.6,1.1-0.6,1.8v3.6H141v-4.1c0-0.6-0.2-1.1-0.5-1.4s-0.8-0.5-1.4-0.5
							c-0.7,0-1.2,0.3-1.6,0.7c-0.4,0.5-0.6,1.1-0.6,1.8v3.6h-1.3v-7.2h1.3v1.5c0.5-1,1.4-1.5,2.7-1.6c0.7,0,1.2,0.2,1.7,0.5
							c0.4,0.3,0.7,0.8,0.9,1.3c0.4-1.2,1.4-1.8,2.8-1.8C145.8-1074,146.5-1073.8,146.9-1073.3z"/>
						<path class="st0" d="M155.4-1073c0.6,0.7,0.9,1.6,0.9,2.8c0,0.2,0,0.3,0,0.4h-5.7c0.1,0.6,0.4,1.2,0.8,1.5
							c0.4,0.4,1,0.6,1.6,0.6c0.4,0,0.8-0.1,1.2-0.2c0.4-0.2,0.7-0.4,1-0.7l0.7,0.7c-0.4,0.4-0.8,0.7-1.3,0.9
							c-0.5,0.2-1.1,0.3-1.7,0.3c-0.7,0-1.3-0.2-1.9-0.5c-0.6-0.3-1-0.7-1.3-1.3c-0.3-0.6-0.5-1.2-0.5-1.9s0.2-1.3,0.5-1.9
							s0.7-1,1.3-1.3c0.5-0.3,1.2-0.5,1.9-0.5C153.9-1074,154.8-1073.7,155.4-1073z M155.1-1070.8c0-0.7-0.3-1.2-0.7-1.5
							s-0.9-0.6-1.6-0.6c-0.6,0-1.2,0.2-1.6,0.6c-0.4,0.4-0.7,0.9-0.8,1.5H155.1z"/>
					</g>
					<g class="st6">
						<path class="st0" d="M95.4-1025.1c0.7,0.6,1,1.4,1,2.4c0,1.1-0.3,1.9-1,2.5c-0.7,0.6-1.6,0.9-2.8,0.9h-2.4v3h-1.3v-9.6h3.7
							C93.8-1026,94.7-1025.7,95.4-1025.1z M94.5-1021.1c0.4-0.4,0.7-0.9,0.7-1.6c0-0.7-0.2-1.2-0.7-1.5s-1.1-0.5-1.9-0.5l-2.3,0
							v4.2h2.3C93.4-1020.6,94-1020.8,94.5-1021.1z"/>
						<path class="st0" d="M102.4-1016.4v-1c-0.5,0.7-1.4,1.1-2.5,1.1c-0.5,0-0.9-0.1-1.3-0.3c-0.4-0.2-0.7-0.5-0.9-0.8
							c-0.2-0.3-0.3-0.7-0.3-1.1c0-0.6,0.2-1.2,0.7-1.5c0.5-0.4,1.1-0.6,2-0.6h2.3v-0.3c0-0.5-0.2-0.9-0.5-1.2
							c-0.3-0.3-0.8-0.4-1.4-0.4c-0.7,0-1.5,0.3-2.2,0.8l-0.5-0.9c0.5-0.3,1-0.6,1.4-0.7s1-0.2,1.6-0.2c0.9,0,1.6,0.2,2.1,0.7
							s0.7,1.1,0.8,1.9l0,4.8H102.4z M101.6-1017.8c0.4-0.3,0.7-0.7,0.7-1.1v-0.7h-2.1c-0.6,0-1,0.1-1.3,0.3
							c-0.3,0.2-0.4,0.4-0.4,0.8s0.1,0.7,0.4,0.9c0.3,0.2,0.7,0.3,1.1,0.3C100.7-1017.4,101.2-1017.5,101.6-1017.8z"/>
						<path class="st0" d="M108.9-1022.5c-0.4-0.1-0.7-0.2-1-0.2c-0.4,0-0.7,0.1-0.9,0.2c-0.2,0.1-0.3,0.4-0.3,0.6
							c0,0.3,0.1,0.5,0.4,0.7c0.3,0.1,0.7,0.3,1.2,0.5c0.5,0.1,0.9,0.3,1.2,0.4c0.3,0.1,0.6,0.4,0.8,0.6c0.2,0.3,0.3,0.7,0.3,1.1
							c0,0.7-0.3,1.2-0.8,1.6c-0.5,0.4-1.2,0.5-1.9,0.5c-0.5,0-1.1-0.1-1.6-0.3c-0.5-0.2-0.9-0.4-1.3-0.7l0.5-0.9
							c0.3,0.3,0.7,0.5,1.1,0.7c0.4,0.2,0.9,0.2,1.3,0.2c0.4,0,0.8-0.1,1-0.2c0.3-0.2,0.4-0.4,0.4-0.7c0-0.3-0.1-0.6-0.4-0.7
							c-0.3-0.2-0.7-0.3-1.2-0.5c-0.5-0.1-0.9-0.3-1.2-0.4c-0.3-0.1-0.6-0.3-0.8-0.6c-0.2-0.3-0.3-0.6-0.3-1.1
							c0-0.7,0.2-1.2,0.7-1.5c0.5-0.3,1.1-0.5,1.8-0.5c0.4,0,0.9,0.1,1.3,0.2s0.8,0.3,1.1,0.5l-0.5,1
							C109.6-1022.2,109.2-1022.4,108.9-1022.5z"/>
						<path class="st0" d="M115.1-1022.5c-0.4-0.1-0.7-0.2-1-0.2c-0.4,0-0.7,0.1-0.9,0.2c-0.2,0.1-0.3,0.4-0.3,0.6
							c0,0.3,0.1,0.5,0.4,0.7c0.3,0.1,0.7,0.3,1.2,0.5c0.5,0.1,0.9,0.3,1.2,0.4c0.3,0.1,0.6,0.4,0.8,0.6c0.2,0.3,0.3,0.7,0.3,1.1
							c0,0.7-0.3,1.2-0.8,1.6c-0.5,0.4-1.2,0.5-1.9,0.5c-0.5,0-1.1-0.1-1.6-0.3c-0.5-0.2-0.9-0.4-1.3-0.7l0.5-0.9
							c0.3,0.3,0.7,0.5,1.1,0.7c0.4,0.2,0.9,0.2,1.3,0.2c0.4,0,0.8-0.1,1-0.2c0.3-0.2,0.4-0.4,0.4-0.7c0-0.3-0.1-0.6-0.4-0.7
							c-0.3-0.2-0.7-0.3-1.2-0.5c-0.5-0.1-0.9-0.3-1.2-0.4c-0.3-0.1-0.6-0.3-0.8-0.6c-0.2-0.3-0.3-0.6-0.3-1.1
							c0-0.7,0.2-1.2,0.7-1.5c0.5-0.3,1.1-0.5,1.8-0.5c0.4,0,0.9,0.1,1.3,0.2s0.8,0.3,1.1,0.5l-0.5,1
							C115.8-1022.2,115.5-1022.4,115.1-1022.5z"/>
						<path class="st0" d="M117.2-1023.6h1.3l2,6l2-6h1.3l2,6l2-6h1.3l-2.7,7.2h-1.3l-2-5.7l-2,5.7h-1.3L117.2-1023.6z"/>
						<path class="st0" d="M135-1023.2c0.6,0.3,1,0.7,1.3,1.3s0.5,1.2,0.5,1.9s-0.2,1.3-0.5,1.9c-0.3,0.6-0.8,1-1.3,1.3
							c-0.6,0.3-1.2,0.5-1.9,0.5c-0.7,0-1.4-0.2-1.9-0.5c-0.6-0.3-1-0.7-1.3-1.3c-0.3-0.5-0.5-1.2-0.5-1.9c0-0.7,0.2-1.3,0.5-1.9
							s0.8-1,1.3-1.3c0.6-0.3,1.2-0.5,1.9-0.5C133.9-1023.7,134.5-1023.5,135-1023.2z M131.9-1022.2c-0.4,0.2-0.7,0.5-0.9,0.9
							c-0.2,0.4-0.3,0.8-0.3,1.3c0,0.5,0.1,0.9,0.3,1.3c0.2,0.4,0.5,0.7,0.9,0.9s0.8,0.3,1.3,0.3c0.5,0,0.9-0.1,1.2-0.3
							s0.7-0.5,0.9-0.9c0.2-0.4,0.3-0.8,0.3-1.3c0-0.5-0.1-0.9-0.3-1.3c-0.2-0.4-0.5-0.7-0.9-0.9s-0.8-0.3-1.2-0.3
							C132.7-1022.6,132.2-1022.5,131.9-1022.2z"/>
						<path class="st0" d="M140.9-1023.3c0.4-0.3,1-0.4,1.6-0.4v1.2c-0.7,0-1.3,0.2-1.8,0.6c-0.5,0.4-0.7,1-0.8,1.7v3.8h-1.3v-7.2
							h1.3v1.6C140.1-1022.6,140.4-1023,140.9-1023.3z"/>
						<path class="st0" d="M150.6-1026.5v10.1h-1.3v-1.4c-0.3,0.5-0.6,0.9-1.1,1.1c-0.5,0.3-1,0.4-1.6,0.4c-0.7,0-1.3-0.2-1.8-0.5
							c-0.5-0.3-0.9-0.8-1.2-1.3c-0.3-0.6-0.4-1.2-0.4-1.9c0-0.7,0.1-1.3,0.4-1.9s0.7-1,1.2-1.3c0.5-0.3,1.1-0.5,1.8-0.5
							c0.6,0,1.2,0.1,1.6,0.4c0.5,0.3,0.8,0.6,1.1,1.1v-4.3H150.6z M148.1-1017.8c0.4-0.2,0.7-0.5,0.9-0.9c0.2-0.4,0.3-0.8,0.3-1.3
							c0-0.5-0.1-0.9-0.3-1.3s-0.5-0.7-0.9-0.9s-0.8-0.3-1.3-0.3s-0.9,0.1-1.3,0.3c-0.4,0.2-0.7,0.5-0.9,0.9s-0.3,0.8-0.3,1.3
							s0.1,0.9,0.3,1.3c0.2,0.4,0.5,0.7,0.9,0.9s0.8,0.3,1.3,0.3S147.7-1017.5,148.1-1017.8z"/>
					</g>
					<g class="st6">
						<path class="st0" d="M104.3-871.5c0.7,0.4,1.2,0.9,1.6,1.5c0.4,0.6,0.6,1.3,0.6,2.1s-0.2,1.5-0.6,2.1
							c-0.4,0.6-0.9,1.1-1.6,1.5c-0.7,0.4-1.4,0.5-2.2,0.5h-3.3v-8.4h3.4C102.9-872,103.6-871.8,104.3-871.5z M103.9-864.9
							c0.5-0.3,0.9-0.7,1.2-1.2c0.3-0.5,0.5-1.1,0.5-1.7c0-0.6-0.2-1.2-0.5-1.7c-0.3-0.5-0.7-0.9-1.3-1.2c-0.5-0.3-1.1-0.5-1.8-0.5
							h-2.5v6.9h2.6C102.8-864.4,103.3-864.6,103.9-864.9z"/>
						<path class="st0" d="M112.2-869.5c0.5,0.3,0.9,0.6,1.1,1.1c0.3,0.5,0.4,1,0.4,1.6c0,0.6-0.1,1.2-0.4,1.6
							c-0.3,0.5-0.6,0.9-1.1,1.1c-0.5,0.3-1,0.4-1.6,0.4c-0.6,0-1.1-0.1-1.6-0.4c-0.5-0.3-0.9-0.6-1.1-1.1c-0.3-0.5-0.4-1-0.4-1.6
							c0-0.6,0.1-1.1,0.4-1.6c0.3-0.5,0.6-0.9,1.1-1.1c0.5-0.3,1-0.4,1.6-0.4C111.2-869.9,111.7-869.8,112.2-869.5z M109.4-868.9
							c-0.4,0.2-0.6,0.5-0.8,0.9c-0.2,0.4-0.3,0.8-0.3,1.3c0,0.5,0.1,0.9,0.3,1.3c0.2,0.4,0.5,0.7,0.8,0.9s0.8,0.3,1.2,0.3
							s0.9-0.1,1.2-0.3s0.6-0.5,0.8-0.9s0.3-0.8,0.3-1.3c0-0.5-0.1-0.9-0.3-1.3s-0.5-0.7-0.8-0.9s-0.8-0.3-1.2-0.3
							S109.7-869.1,109.4-868.9z"/>
						<path class="st0" d="M120.5-869.3c0.4,0.4,0.6,1,0.6,1.8v3.8h-0.8v-3.7c0-0.6-0.2-1.1-0.5-1.4c-0.3-0.3-0.8-0.5-1.4-0.5
							c-0.6,0-1.2,0.2-1.5,0.6c-0.4,0.4-0.6,0.9-0.7,1.6v3.4h-0.8v-6.3h0.8v1.5c0.2-0.5,0.5-0.9,0.9-1.1s0.9-0.4,1.5-0.4
							C119.5-869.9,120-869.7,120.5-869.3z"/>
						<path class="st0" d="M122.8-872h0.6v2.6h-0.6V-872z"/>
						<path class="st0" d="M128.5-864.1c-0.4,0.3-0.9,0.4-1.4,0.5c-0.5,0-0.9-0.1-1.1-0.4s-0.4-0.7-0.4-1.3v-3.7h-0.9l0-0.6h0.9
							v-1.6h0.8v1.6l2,0v0.6h-2v3.6c0,0.8,0.3,1.2,0.9,1.2c0.3,0,0.7-0.1,1-0.3L128.5-864.1z"/>
						<path class="st0" d="M138.3-869.3c0.4,0.4,0.6,1,0.6,1.8v3.8h-0.8v-3.7c0-0.6-0.2-1.1-0.5-1.4c-0.3-0.3-0.8-0.5-1.4-0.5
							c-0.7,0-1.2,0.2-1.6,0.7c-0.4,0.5-0.6,1-0.6,1.8v3.1h-0.8v-8.9h0.8v4.1c0.4-1,1.3-1.5,2.5-1.5
							C137.3-869.9,137.9-869.7,138.3-869.3z"/>
						<path class="st0" d="M145-863.7l0-1.1c-0.2,0.4-0.6,0.6-1,0.8c-0.4,0.2-0.9,0.3-1.4,0.3c-0.4,0-0.8-0.1-1.1-0.2
							c-0.3-0.2-0.6-0.4-0.7-0.7c-0.2-0.3-0.3-0.6-0.3-1c0-0.5,0.2-1,0.6-1.3c0.4-0.3,1-0.5,1.7-0.5h2.1v-0.5c0-0.5-0.1-0.9-0.4-1.1
							c-0.3-0.3-0.7-0.4-1.3-0.4c-0.7,0-1.3,0.3-2,0.8l-0.4-0.5c0.4-0.3,0.8-0.5,1.2-0.7c0.4-0.1,0.8-0.2,1.3-0.2
							c0.8,0,1.3,0.2,1.8,0.6c0.4,0.4,0.6,0.9,0.6,1.6l0,4.1H145z M144.2-864.7c0.4-0.3,0.6-0.6,0.8-1.1v-0.9h-2
							c-0.5,0-1,0.1-1.3,0.3c-0.3,0.2-0.4,0.5-0.4,0.8c0,0.4,0.1,0.7,0.4,0.9c0.3,0.2,0.6,0.3,1.1,0.3
							C143.4-864.3,143.8-864.4,144.2-864.7z"/>
						<path class="st0" d="M146.6-869.9h0.9l2.1,5.5l2.1-5.5h0.8l-2.5,6.3h-0.8L146.6-869.9z"/>
						<path class="st0" d="M158-869c0.5,0.6,0.7,1.4,0.7,2.5h-5.2c0.1,0.7,0.3,1.2,0.7,1.6s1,0.6,1.6,0.6c0.4,0,0.8-0.1,1.1-0.2
							c0.3-0.1,0.6-0.3,0.9-0.6l0.5,0.5c-0.3,0.3-0.7,0.6-1.1,0.8c-0.4,0.2-0.9,0.3-1.4,0.3c-0.6,0-1.1-0.1-1.6-0.4
							c-0.5-0.3-0.8-0.6-1.1-1.1c-0.3-0.5-0.4-1-0.4-1.6c0-0.6,0.1-1.1,0.4-1.6c0.3-0.5,0.6-0.9,1.1-1.1c0.5-0.3,1-0.4,1.6-0.4
							C156.7-869.9,157.5-869.6,158-869z M158-867.1c0-0.7-0.3-1.2-0.7-1.6c-0.4-0.4-0.9-0.6-1.5-0.6c-0.6,0-1.2,0.2-1.6,0.6
							c-0.4,0.4-0.7,0.9-0.7,1.6H158z"/>
						<path class="st0" d="M167.6-863.7l0-1.1c-0.2,0.4-0.6,0.6-1,0.8c-0.4,0.2-0.9,0.3-1.4,0.3c-0.4,0-0.8-0.1-1.1-0.2
							c-0.3-0.2-0.6-0.4-0.7-0.7c-0.2-0.3-0.3-0.6-0.3-1c0-0.5,0.2-1,0.6-1.3c0.4-0.3,1-0.5,1.7-0.5h2.1v-0.5c0-0.5-0.1-0.9-0.4-1.1
							c-0.3-0.3-0.7-0.4-1.3-0.4c-0.7,0-1.3,0.3-2,0.8l-0.4-0.5c0.4-0.3,0.8-0.5,1.2-0.7c0.4-0.1,0.8-0.2,1.3-0.2
							c0.8,0,1.3,0.2,1.8,0.6c0.4,0.4,0.6,0.9,0.6,1.6l0,4.1H167.6z M166.8-864.7c0.4-0.3,0.6-0.6,0.8-1.1v-0.9h-2
							c-0.5,0-1,0.1-1.3,0.3c-0.3,0.2-0.4,0.5-0.4,0.8c0,0.4,0.1,0.7,0.4,0.9c0.3,0.2,0.6,0.3,1.1,0.3
							C165.9-864.3,166.4-864.4,166.8-864.7z"/>
						<path class="st0" d="M175.6-869.3c0.4,0.4,0.6,1,0.6,1.8v3.8h-0.8v-3.7c0-0.6-0.2-1.1-0.5-1.4c-0.3-0.3-0.8-0.5-1.4-0.5
							c-0.6,0-1.2,0.2-1.5,0.6c-0.4,0.4-0.6,0.9-0.7,1.6v3.4h-0.8v-6.3h0.8v1.5c0.2-0.5,0.5-0.9,0.9-1.1s0.9-0.4,1.5-0.4
							C174.5-869.9,175.1-869.7,175.6-869.3z"/>
						<path class="st0" d="M185.5-863.7l0-1.1c-0.2,0.4-0.6,0.6-1,0.8c-0.4,0.2-0.9,0.3-1.4,0.3c-0.4,0-0.8-0.1-1.1-0.2
							c-0.3-0.2-0.6-0.4-0.7-0.7c-0.2-0.3-0.3-0.6-0.3-1c0-0.5,0.2-1,0.6-1.3c0.4-0.3,1-0.5,1.7-0.5h2.1v-0.5c0-0.5-0.1-0.9-0.4-1.1
							c-0.3-0.3-0.7-0.4-1.3-0.4c-0.7,0-1.3,0.3-2,0.8l-0.4-0.5c0.4-0.3,0.8-0.5,1.2-0.7c0.4-0.1,0.8-0.2,1.3-0.2
							c0.8,0,1.3,0.2,1.8,0.6c0.4,0.4,0.6,0.9,0.6,1.6l0,4.1H185.5z M184.8-864.7c0.4-0.3,0.6-0.6,0.8-1.1v-0.9h-2
							c-0.5,0-1,0.1-1.3,0.3c-0.3,0.2-0.4,0.5-0.4,0.8c0,0.4,0.1,0.7,0.4,0.9c0.3,0.2,0.6,0.3,1.1,0.3
							C183.9-864.3,184.4-864.4,184.8-864.7z"/>
						<path class="st0" d="M191-869.2c-0.4,0-0.8,0.1-1.2,0.3s-0.6,0.5-0.8,0.9s-0.3,0.8-0.3,1.3s0.1,0.9,0.3,1.3s0.5,0.7,0.8,0.9
							s0.8,0.3,1.2,0.3c0.4,0,0.8-0.1,1.1-0.2s0.6-0.4,0.9-0.6l0.5,0.5c-0.3,0.3-0.6,0.6-1.1,0.8c-0.4,0.2-0.9,0.3-1.4,0.3
							c-0.6,0-1.1-0.1-1.6-0.4c-0.5-0.3-0.8-0.6-1.1-1.1c-0.3-0.5-0.4-1-0.4-1.6s0.1-1.1,0.4-1.6c0.3-0.5,0.6-0.9,1.1-1.1
							s1-0.4,1.6-0.4c0.5,0,0.9,0.1,1.3,0.2c0.4,0.2,0.7,0.4,1,0.7l-0.5,0.5C192.3-869,191.7-869.2,191-869.2z"/>
						<path class="st0" d="M197.3-869.2c-0.4,0-0.8,0.1-1.2,0.3s-0.6,0.5-0.8,0.9s-0.3,0.8-0.3,1.3s0.1,0.9,0.3,1.3s0.5,0.7,0.8,0.9
							s0.8,0.3,1.2,0.3c0.4,0,0.8-0.1,1.1-0.2c0.3-0.1,0.6-0.4,0.9-0.6l0.5,0.5c-0.3,0.3-0.6,0.6-1.1,0.8c-0.4,0.2-0.9,0.3-1.4,0.3
							c-0.6,0-1.1-0.1-1.6-0.4c-0.5-0.3-0.8-0.6-1.1-1.1c-0.3-0.5-0.4-1-0.4-1.6s0.1-1.1,0.4-1.6c0.3-0.5,0.6-0.9,1.1-1.1
							c0.5-0.3,1-0.4,1.6-0.4c0.5,0,0.9,0.1,1.3,0.2s0.7,0.4,1,0.7l-0.5,0.5C198.7-869,198.1-869.2,197.3-869.2z"/>
						<path class="st0" d="M205.4-869.5c0.5,0.3,0.9,0.6,1.1,1.1c0.3,0.5,0.4,1,0.4,1.6c0,0.6-0.1,1.2-0.4,1.6
							c-0.3,0.5-0.6,0.9-1.1,1.1c-0.5,0.3-1,0.4-1.6,0.4s-1.1-0.1-1.6-0.4c-0.5-0.3-0.9-0.6-1.1-1.1c-0.3-0.5-0.4-1-0.4-1.6
							c0-0.6,0.1-1.1,0.4-1.6c0.3-0.5,0.6-0.9,1.1-1.1c0.5-0.3,1-0.4,1.6-0.4S204.9-869.8,205.4-869.5z M202.5-868.9
							c-0.4,0.2-0.6,0.5-0.8,0.9s-0.3,0.8-0.3,1.3c0,0.5,0.1,0.9,0.3,1.3s0.5,0.7,0.8,0.9s0.8,0.3,1.2,0.3s0.9-0.1,1.2-0.3
							s0.6-0.5,0.8-0.9s0.3-0.8,0.3-1.3c0-0.5-0.1-0.9-0.3-1.3s-0.5-0.7-0.8-0.9s-0.8-0.3-1.2-0.3S202.9-869.1,202.5-868.9z"/>
						<path class="st0" d="M214-869.9v6.3h-0.8v-1.5c-0.2,0.5-0.5,0.9-0.9,1.1s-0.9,0.4-1.5,0.4c-0.7,0-1.3-0.2-1.7-0.7
							c-0.4-0.4-0.6-1-0.6-1.8v-3.8h0.8v3.7c0,0.6,0.2,1,0.5,1.4c0.3,0.3,0.8,0.5,1.3,0.5c0.7,0,1.2-0.2,1.6-0.7
							c0.4-0.4,0.6-1,0.6-1.8v-3.1H214z"/>
						<path class="st0" d="M221.4-869.3c0.4,0.4,0.6,1,0.6,1.8v3.8h-0.8v-3.7c0-0.6-0.2-1.1-0.5-1.4c-0.3-0.3-0.8-0.5-1.4-0.5
							c-0.6,0-1.2,0.2-1.5,0.6c-0.4,0.4-0.6,0.9-0.7,1.6v3.4h-0.8v-6.3h0.8v1.5c0.2-0.5,0.5-0.9,1-1.1s0.9-0.4,1.5-0.4
							C220.3-869.9,220.9-869.7,221.4-869.3z"/>
						<path class="st0" d="M227.3-864.1c-0.4,0.3-0.9,0.4-1.4,0.5c-0.5,0-0.9-0.1-1.1-0.4c-0.3-0.3-0.4-0.7-0.4-1.3v-3.7h-0.9l0-0.6
							h0.9v-1.6h0.8v1.6l2,0v0.6h-2v3.6c0,0.8,0.3,1.2,0.9,1.2c0.3,0,0.7-0.1,1-0.3L227.3-864.1z"/>
					</g>
					<text transform="matrix(1 0 0 1 227.5622 -863.6599)" class="st0 st7 st8"> </text>
					<g class="st6">
						<path class="st0" d="M235.7-870.5c-0.5-0.1-0.8-0.2-1.2-0.2c-0.4,0-0.7,0.1-0.9,0.2c-0.2,0.1-0.3,0.3-0.3,0.6
							c0,0.2,0.1,0.4,0.2,0.6s0.4,0.3,0.6,0.4c0.2,0.1,0.6,0.2,1,0.3c0.6,0.2,1,0.3,1.4,0.5c0.4,0.2,0.7,0.4,0.9,0.7
							s0.4,0.8,0.4,1.3c0,0.5-0.1,1-0.4,1.3c-0.3,0.4-0.7,0.7-1.1,0.9c-0.5,0.2-1,0.3-1.7,0.3c-0.7,0-1.3-0.1-1.9-0.4
							s-1.2-0.6-1.6-1l0.7-1.4c0.4,0.4,0.9,0.7,1.4,0.9c0.5,0.2,1,0.3,1.5,0.3c0.4,0,0.8-0.1,1.1-0.3c0.3-0.2,0.4-0.4,0.4-0.7
							c0-0.2-0.1-0.4-0.2-0.6s-0.4-0.3-0.6-0.4c-0.2-0.1-0.6-0.2-1-0.3c-0.6-0.2-1-0.3-1.4-0.5s-0.7-0.4-0.9-0.7s-0.4-0.7-0.4-1.3
							c0-0.5,0.1-0.9,0.4-1.3c0.3-0.4,0.6-0.6,1.1-0.8s1-0.3,1.6-0.3c0.5,0,1.1,0.1,1.6,0.2c0.5,0.2,1,0.4,1.4,0.6l-0.6,1.4
							C236.5-870.1,236.1-870.3,235.7-870.5z"/>
						<path class="st0" d="M240.6-872.5c0.2,0.2,0.3,0.4,0.3,0.7c0,0.3-0.1,0.5-0.3,0.7c-0.2,0.2-0.4,0.3-0.6,0.3s-0.5-0.1-0.6-0.3
							c-0.2-0.2-0.3-0.4-0.3-0.7c0-0.3,0.1-0.5,0.3-0.7c0.2-0.2,0.4-0.3,0.6-0.3S240.4-872.7,240.6-872.5z M239.2-870.1h1.6v6.4
							h-1.6V-870.1z"/>
						<path class="st0" d="M248.5-870.1v5.8c0,0.6-0.1,1.1-0.4,1.6c-0.3,0.5-0.7,0.8-1.2,1s-1.1,0.4-1.8,0.4c-1,0-1.9-0.3-2.7-0.8
							l0.6-1.1c0.6,0.4,1.3,0.7,2,0.7c0.6,0,1-0.1,1.4-0.4c0.3-0.3,0.5-0.7,0.5-1.2v-0.8c-0.2,0.3-0.5,0.6-0.8,0.7
							c-0.3,0.2-0.7,0.3-1.2,0.3c-0.6,0-1.1-0.1-1.5-0.4c-0.4-0.3-0.8-0.6-1-1.1c-0.2-0.5-0.4-1-0.4-1.6c0-0.6,0.1-1.1,0.4-1.6
							c0.2-0.5,0.6-0.8,1-1.1c0.4-0.3,0.9-0.4,1.5-0.4c0.4,0,0.8,0.1,1.2,0.3c0.3,0.2,0.6,0.4,0.8,0.7v-1H248.5z M246.5-865.7
							c0.3-0.3,0.5-0.8,0.5-1.3c0-0.5-0.2-1-0.5-1.3c-0.3-0.3-0.7-0.5-1.2-0.5c-0.5,0-0.9,0.2-1.2,0.5c-0.3,0.3-0.5,0.8-0.5,1.3
							c0,0.5,0.2,1,0.5,1.3s0.7,0.5,1.2,0.5C245.7-865.2,246.1-865.4,246.5-865.7z"/>
						<path class="st0" d="M255.9-869.4c0.4,0.4,0.6,1,0.6,1.8v4H255v-3.5c0-0.4-0.1-0.8-0.4-1.1s-0.6-0.4-1-0.4
							c-0.5,0-0.9,0.2-1.2,0.5s-0.4,0.8-0.4,1.3v3.1h-1.6v-6.4h1.6v1.2c0.4-0.8,1.2-1.2,2.3-1.3
							C254.9-870.1,255.5-869.9,255.9-869.4z"/>
						<path class="st0" d="M263.3-865.5c0.4,0.4,0.9,0.6,1.5,0.6s1.1-0.2,1.5-0.6c0.4-0.4,0.5-0.9,0.5-1.6v-4.9h1.6v4.9
							c0,0.7-0.1,1.4-0.4,1.9c-0.3,0.5-0.7,0.9-1.3,1.2c-0.5,0.3-1.2,0.4-1.9,0.4c-0.7,0-1.4-0.1-2-0.4s-1-0.7-1.3-1.2
							c-0.3-0.5-0.4-1.2-0.4-1.9v-4.9h1.6v4.9C262.7-866.4,262.9-865.9,263.3-865.5z"/>
						<path class="st0" d="M275.6-869.7c0.5,0.3,0.8,0.7,1.1,1.2s0.4,1.1,0.4,1.7c0,0.6-0.1,1.2-0.4,1.7c-0.2,0.5-0.6,0.9-1.1,1.1
							c-0.5,0.3-1,0.4-1.6,0.4c-0.5,0-0.9-0.1-1.3-0.3c-0.4-0.2-0.7-0.5-0.9-0.8v3.4h-1.6v-8.7h1.6v1.1c0.2-0.4,0.5-0.6,0.9-0.8
							c0.4-0.2,0.8-0.3,1.3-0.3C274.6-870.1,275.1-870,275.6-869.7z M274.9-865.5c0.3-0.4,0.5-0.8,0.5-1.4s-0.2-1-0.5-1.4
							c-0.3-0.4-0.8-0.5-1.3-0.5c-0.5,0-1,0.2-1.3,0.5s-0.5,0.8-0.5,1.4c0,0.6,0.2,1,0.5,1.4s0.8,0.5,1.3,0.5
							C274.2-864.9,274.6-865.1,274.9-865.5z"/>
					</g>
					<line id="Line_1" class="st9" x1="53" y1="-1050.1" x2="321.8" y2="-1050.1"/>
					<line id="Line_2" class="st9" x1="53" y1="-997.2" x2="321.8" y2="-997.2"/>
					
						<linearGradient id="Rectangle_2_1_" gradientUnits="userSpaceOnUse" x1="-306.6915" y1="250.2798" x2="-305.8383" y2="251.1332" gradientTransform="matrix(315 0 0 60 96660.4375 -15973.4922)">
						<stop  offset="0" style="stop-color:#5E2A8D"/>
						<stop  offset="1" style="stop-color:#301A52"/>
					</linearGradient>
					<rect id="Rectangle_2" x="52.6" y="-956.7" class="st10" width="268.8" height="51.2"/>
					<g class="st6">
						<path class="st0" d="M165.5-933.6c-0.6-0.2-1.1-0.3-1.6-0.3c-0.7,0-1.2,0.1-1.7,0.4c-0.4,0.3-0.6,0.6-0.6,1.1
							c0,0.4,0.1,0.8,0.4,1c0.3,0.3,0.6,0.5,0.9,0.6c0.4,0.2,0.9,0.3,1.5,0.5c0.8,0.3,1.5,0.5,2,0.7s0.9,0.6,1.3,1
							c0.4,0.4,0.5,1,0.5,1.8c0,0.7-0.2,1.3-0.6,1.8s-0.9,0.9-1.6,1.2c-0.7,0.3-1.4,0.4-2.3,0.4c-0.9,0-1.7-0.2-2.6-0.5
							c-0.8-0.3-1.5-0.8-2.2-1.4l0.7-1.4c0.6,0.6,1.2,1,1.9,1.3c0.7,0.3,1.4,0.5,2.1,0.5c0.8,0,1.4-0.2,1.9-0.5
							c0.5-0.3,0.7-0.7,0.7-1.3c0-0.4-0.1-0.8-0.4-1c-0.3-0.3-0.6-0.5-0.9-0.6c-0.4-0.2-0.9-0.3-1.5-0.5c-0.8-0.2-1.4-0.5-1.9-0.7
							c-0.5-0.2-0.9-0.6-1.3-1c-0.3-0.4-0.5-1-0.5-1.8c0-0.6,0.2-1.2,0.5-1.7s0.8-0.9,1.5-1.1s1.4-0.4,2.2-0.4
							c0.7,0,1.4,0.1,2.1,0.3c0.7,0.2,1.3,0.5,1.8,0.8l-0.7,1.5C166.7-933.2,166.1-933.5,165.5-933.6z"/>
						<path class="st0" d="M172.1-935.7c0.2,0.2,0.3,0.4,0.3,0.7s-0.1,0.5-0.3,0.7c-0.2,0.2-0.4,0.3-0.7,0.3c-0.3,0-0.5-0.1-0.7-0.3
							c-0.2-0.2-0.3-0.4-0.3-0.7s0.1-0.5,0.3-0.7c0.2-0.2,0.4-0.3,0.7-0.3C171.7-936,171.9-935.9,172.1-935.7z M170.6-932.4h1.6v9
							h-1.6V-932.4z"/>
						<path class="st0" d="M183.3-932.4v8.1c0,0.9-0.2,1.6-0.6,2.3c-0.4,0.6-0.9,1.1-1.6,1.5c-0.7,0.3-1.5,0.5-2.4,0.5
							c-1.3,0-2.6-0.4-3.7-1.3l0.7-1.2c0.4,0.4,0.9,0.6,1.4,0.8c0.5,0.2,1,0.3,1.6,0.3c0.9,0,1.7-0.3,2.2-0.8s0.8-1.2,0.8-2.1v-1.3
							c-0.3,0.5-0.8,1-1.3,1.3c-0.5,0.3-1.2,0.5-1.9,0.5c-0.8,0-1.5-0.2-2.1-0.6c-0.6-0.4-1.1-0.9-1.4-1.5s-0.5-1.4-0.5-2.3
							c0-0.8,0.2-1.6,0.5-2.2s0.8-1.2,1.4-1.5s1.3-0.5,2.1-0.5c0.7,0,1.3,0.1,1.9,0.4s1,0.7,1.3,1.3v-1.7H183.3z M180.3-925.5
							c0.4-0.3,0.8-0.6,1-1.1s0.4-1,0.4-1.6c0-0.6-0.1-1.1-0.4-1.6c-0.2-0.5-0.6-0.8-1-1.1c-0.4-0.3-0.9-0.4-1.5-0.4
							c-0.6,0-1.1,0.1-1.5,0.4c-0.4,0.3-0.8,0.6-1,1.1c-0.3,0.5-0.4,1-0.4,1.6c0,0.9,0.3,1.6,0.8,2.2c0.5,0.6,1.2,0.9,2.1,0.9
							C179.4-925.1,179.9-925.2,180.3-925.5z"/>
						<path class="st0" d="M193.7-931.5c0.6,0.6,0.9,1.5,0.9,2.6v5.6H193v-5.2c0-0.8-0.2-1.4-0.6-1.8s-1-0.6-1.8-0.6
							c-0.8,0-1.5,0.3-2,0.8c-0.5,0.5-0.8,1.2-0.9,2v4.8h-1.6v-9h1.6v1.9c0.6-1.3,1.7-1.9,3.4-2
							C192.3-932.5,193.1-932.2,193.7-931.5z"/>
						<path class="st0" d="M203.4-935.7c0.2,0.2,0.3,0.4,0.3,0.7s-0.1,0.5-0.3,0.7s-0.4,0.3-0.7,0.3c-0.3,0-0.5-0.1-0.7-0.3
							s-0.3-0.4-0.3-0.7s0.1-0.5,0.3-0.7s0.4-0.3,0.7-0.3C203-936,203.2-935.9,203.4-935.7z M201.9-932.4h1.6v9h-1.6V-932.4z"/>
						<path class="st0" d="M214.1-931.5c0.6,0.6,0.9,1.5,0.9,2.6v5.6h-1.6v-5.2c0-0.8-0.2-1.4-0.6-1.8s-1-0.6-1.8-0.6
							c-0.8,0-1.5,0.3-2,0.8c-0.5,0.5-0.8,1.2-0.9,2v4.8h-1.6v-9h1.6v1.9c0.6-1.3,1.7-1.9,3.4-2
							C212.7-932.5,213.5-932.2,214.1-931.5z"/>
					</g>
				</g>
				<g id="Logo_2_" transform="translate(47.95 1553.548)">
					<path id="Path_295" class="st11" d="M40.6-1310.9l-19.7,19.7c-1.2,1.3-1.2,3.3,0,4.6l19.7,19.7c1.3,1.3,3.3,1.3,4.6,0
						c0.6-0.6,0.9-1.4,0.9-2.3v-39.4c0-1.8-1.4-3.2-3.2-3.2C42.1-1311.9,41.2-1311.5,40.6-1310.9z"/>
					<path id="Path_296" class="st11" d="M65.1-1296.6h190.6c1.8,0,3.2-1.4,3.2-3.2c0-0.9-0.3-1.7-1-2.3l-110.8-110.8
						c-1.3-1.2-3.3-1.2-4.6,0l-79.8,79.8c-0.6,0.6-1,1.4-1,2.3v31C61.9-1298.1,63.3-1296.6,65.1-1296.6z"/>
					<path id="Path_297" class="st11" d="M61.9-1277.6v30.7c0,0.9,0.3,1.7,1,2.3l79.8,79.8c1.3,1.2,3.3,1.2,4.6,0L258-1275.4
						c1.3-1.3,1.3-3.3,0-4.6c-0.6-0.6-1.4-0.9-2.3-0.9H65.1C63.3-1280.9,61.9-1279.4,61.9-1277.6z"/>
				</g>
			</g>
		</g>
	</g>
</g>
</svg>
