<?xml version="1.0" encoding="utf-8"?>
<!-- Generator: Adobe Illustrator 21.1.0, SVG Export Plug-In . SVG Version: 6.00 Build 0)  -->
<svg version="1.1" id="Layer_1" xmlns="http://www.w3.org/2000/svg" xmlns:xlink="http://www.w3.org/1999/xlink" x="0px" y="0px"
	 viewBox="0 0 238.9 249.9" style="enable-background:new 0 0 238.9 249.9;" xml:space="preserve">
<style type="text/css">
	.st0{fill:#C1A4DB;}
</style>
<g id="Logo_1_" transform="translate(47.95 1553.548)">
	<path id="Path_295_1_" class="st0" d="M-27.3-1450.6l-19.7,19.7c-1.2,1.3-1.2,3.3,0,4.6l19.7,19.7c1.3,1.3,3.3,1.3,4.6,0
		c0.6-0.6,0.9-1.4,0.9-2.3v-39.4c0-1.8-1.4-3.2-3.2-3.2C-25.9-1451.6-26.7-1451.2-27.3-1450.6z"/>
	<path id="Path_296_1_" class="st0" d="M-2.8-1436.3h190.6c1.8,0,3.2-1.4,3.2-3.2c0-0.9-0.3-1.7-1-2.3L79.3-1552.6
		c-1.3-1.2-3.3-1.2-4.6,0l-79.8,79.8c-0.6,0.6-1,1.4-1,2.3v31C-6.1-1437.8-4.6-1436.3-2.8-1436.3z"/>
	<path id="Path_297_1_" class="st0" d="M-6.1-1417.4v30.7c0,0.9,0.3,1.7,1,2.3l79.8,79.8c1.3,1.2,3.3,1.2,4.6,0L190-1415.1
		c1.3-1.3,1.3-3.3,0-4.6c-0.6-0.6-1.4-0.9-2.3-0.9H-2.8C-4.6-1420.6-6.1-1419.1-6.1-1417.4z"/>
</g>
</svg>
