<?xml version="1.0" encoding="utf-8"?>
<!-- Generator: Adobe Illustrator 21.1.0, SVG Export Plug-In . SVG Version: 6.00 Build 0)  -->
<svg version="1.1" id="Layer_1" xmlns="http://www.w3.org/2000/svg" xmlns:xlink="http://www.w3.org/1999/xlink" x="0px" y="0px"
	 viewBox="0 0 372 779" style="enable-background:new 0 0 372 779;" xml:space="preserve">
<style type="text/css">
	.st0{fill:#FFFFFF;}
	.st1{fill:#D0D2D3;}
	.st2{clip-path:url(#SVGID_2_);}
	.st3{fill:url(#Background_1_);}
	.st4{fill:#AC9BC4;}
	.st5{font-family:'Montserrat-Regular';}
	.st6{font-size:52.9067px;}
	.st7{fill:#C1A4DB;}
</style>
<g>
	<g id="iPhone_5_18_">
		<path class="st0" d="M347,673.9c0,1.2-0.9,2.1-2.1,2.1H29.1c-1.2,0-2.1-1-2.1-2.1V108.2c0-1.2,0.9-2.1,2.1-2.1h315.8
			c1.2,0,2.1,1,2.1,2.1V673.9z M4,59.7v663.6C4,754.1,29,779,59.8,779h256.5c30.8,0,55.8-24.9,55.8-55.7V59.7
			C372,29,347.1,4,316.3,4H59.8C29,4,4,29,4,59.7z"/>
		<path class="st1" d="M256,0c-2.2,0-4,1.8-4,4h59c0-2.2-1.8-4-4-4H256z M4,246c-2.2,0-4,1.8-4,4v18c0,2.2,1.8,4,4,4V246z M4,181
			c-2.2,0-4,1.8-4,4v18c0,2.2,1.8,4,4,4v-19.5V181z M4,107c-2.2,0-4,1.8-4,4v27c0,2.2,1.8,4,4,4V107z M160,724c0-15.5,12.5-28,28-28
			s28,12.5,28,28s-12.5,28-28,28S160,739.5,160,724z M222,724c0-18.8-15.2-34-34-34s-34,15.2-34,34s15.2,34,34,34S222,742.8,222,724
			z M188.5,43c3.6,0,6.5-2.9,6.5-6.5s-2.9-6.5-6.5-6.5s-6.5,2.9-6.5,6.5S184.9,43,188.5,43z M136.5,70c2.5,0,4.5-2,4.5-4.5
			s-2-4.5-4.5-4.5s-4.5,2-4.5,4.5S134,70,136.5,70z M162,61c-2.2,0-4,1.8-4,4c0,2.2,1.8,4,4,4h52c2.2,0,4-1.8,4-4c0-2.2-1.8-4-4-4
			H162z M345.9,675H28.1c-0.6,0-1.1-0.5-1.1-1.1V108.1c0-0.6,0.5-1.1,1.1-1.1h317.8c0.6,0,1.1,0.5,1.1,1.1v565.8
			C347,674.5,346.5,675,345.9,675z M345.9,676H28.1c-1.2,0-2.1-1-2.1-2.1V108.1c0-1.2,1-2.1,2.1-2.1h317.7c1.2,0,2.1,1,2.1,2.1
			v565.8C348,675,347,676,345.9,676z M59.8,5h256.5C346.5,5,371,29.5,371,59.7v663.6c0,30.2-24.5,54.7-54.8,54.7H59.8
			C29.5,778,5,753.5,5,723.3V59.7C5,29.5,29.5,5,59.8,5z M4,723.3C4,754.1,29,779,59.8,779h256.5c30.8,0,55.8-24.9,55.8-55.7V59.7
			C372,28.9,347,4,316.2,4H59.8C29,4,4,28.9,4,59.7V723.3z"/>
		<g>
			<defs>
				<rect id="SVGID_1_" x="27" y="106.9" width="320" height="569.2"/>
			</defs>
			<clipPath id="SVGID_2_">
				<use xlink:href="#SVGID_1_"  style="overflow:visible;"/>
			</clipPath>
			<g id="Loading" class="st2">
				<rect x="27" y="106.9" class="st0" width="320" height="569.2"/>
				<g id="Group_507" transform="translate(-445 1514)">
					
						<linearGradient id="Background_1_" gradientUnits="userSpaceOnUse" x1="258.7601" y1="-455.3057" x2="259.6135" y2="-456.1591" gradientTransform="matrix(375 0 0 -667 -96563 -305096)">
						<stop  offset="0" style="stop-color:#DC2430"/>
						<stop  offset="1" style="stop-color:#5E2A8D"/>
					</linearGradient>
					<rect id="Background" x="472" y="-1407.1" class="st3" width="320" height="569.2"/>
					<text transform="matrix(1 0 0 1 528.3303 -1064.8999)" class="st4 st5 st6">TERSUS</text>
					<g id="Logo" transform="translate(47.95 39.548)">
						<path id="Path_295" class="st7" d="M485.7-1309.9l-19.7,19.7c-1.2,1.3-1.2,3.3,0,4.6l19.7,19.7c1.3,1.3,3.3,1.3,4.6,0
							c0.6-0.6,0.9-1.4,0.9-2.3v-39.4c0-1.8-1.4-3.2-3.2-3.2C487.1-1310.9,486.3-1310.5,485.7-1309.9z"/>
						<path id="Path_296" class="st7" d="M510.2-1295.6h190.6c1.8,0,3.2-1.4,3.2-3.2c0-0.9-0.3-1.7-1-2.3l-110.8-110.8
							c-1.3-1.2-3.3-1.2-4.6,0l-79.8,79.8c-0.6,0.6-1,1.4-1,2.3v31C506.9-1297.1,508.4-1295.6,510.2-1295.6z"/>
						<path id="Path_297" class="st7" d="M506.9-1276.6v30.7c0,0.9,0.3,1.7,1,2.3l79.8,79.8c1.3,1.2,3.3,1.2,4.6,0L703-1274.4
							c1.3-1.3,1.3-3.3,0-4.6c-0.6-0.6-1.4-0.9-2.3-0.9H510.2C508.4-1279.9,506.9-1278.4,506.9-1276.6z"/>
					</g>
				</g>
			</g>
		</g>
	</g>
</g>
</svg>
